<?xml version="1.0" encoding="UTF-8"?>
<svg version="1.1" xmlns="http://www.w3.org/2000/svg" width="16" height="16">
<path d="M0 0 C0.66 0 1.32 0 2 0 C2 0.66 2 1.32 2 2 C2.66 2 3.32 2 4 2 C4 1.34 4 0.68 4 0 C4.66 0 5.32 0 6 0 C5.67 4.62 5.34 9.24 5 14 C3.68 14 2.36 14 1 14 C0.67 13.01 0.34 12.02 0 11 C-0.99 11 -1.98 11 -3 11 C-3 11.66 -3 12.32 -3 13 C-4.32 13 -5.64 13 -7 13 C-8.38550197 10.22899606 -8.1877467 8.0665294 -8 5 C-7.34 4.01 -6.68 3.02 -6 2 C-2.875 1.8125 -2.875 1.8125 0 2 C0 1.34 0 0.68 0 0 Z M-4 4 C0 5 0 5 0 5 Z M-6 7 C-5 9 -5 9 -5 9 Z " fill="#000000" transform="translate(9,1)"/>
</svg>
