<?xml version="1.0" encoding="UTF-8"?>
<svg version="1.1" xmlns="http://www.w3.org/2000/svg" width="512" height="512">
<path d="M0 0 C1.24900977 3.74702932 1.14447795 7.23694063 1.1418457 11.13989258 C1.14532013 11.96949997 1.14879456 12.79910736 1.15237427 13.65385437 C1.15972724 15.45611208 1.16507507 17.25837883 1.16866493 19.06064796 C1.17583222 21.91483016 1.19150089 24.76884062 1.21000671 27.62297058 C1.2624633 35.7382878 1.31045094 43.85351102 1.32592773 51.96899414 C1.33601499 56.9328302 1.36535829 61.89623422 1.40724754 66.85989952 C1.41955171 68.75005512 1.42467987 70.64027175 1.42244911 72.53046608 C1.42009339 75.17808681 1.44228245 77.82447044 1.4699707 80.47192383 C1.46336929 81.24980255 1.45676788 82.02768127 1.44996643 82.82913208 C1.5390891 88.02974211 2.72129199 90.98753789 6 95 C13.1078366 100.58744374 24.82761847 107.32183795 34 107 C43.03093832 104.14606711 54.9250867 99.55436417 61 92 C62.85872806 86.71558733 63.29868319 82.0463811 63.30297852 76.52612305 C63.31563751 75.30045876 63.31563751 75.30045876 63.32855225 74.05003357 C63.35417879 71.37058889 63.36643205 68.69125397 63.37890625 66.01171875 C63.39509155 64.14320515 63.41227263 62.27469994 63.43040466 60.40620422 C63.4759626 55.50308092 63.51084186 50.59994631 63.54260254 45.69671631 C63.59461063 37.83121001 63.65953248 29.96582626 63.73081779 22.1004734 C63.75367756 19.35171743 63.76992616 16.60297724 63.78553772 13.85417175 C63.7989391 12.17841412 63.81255344 10.50265818 63.82641602 8.8269043 C63.82902939 8.05963013 63.83164276 7.29235596 63.83433533 6.50183105 C63.88635894 1.22728212 63.88635894 1.22728212 65 -1 C68.50483528 -2.40455946 70.02313026 -1.99142023 73.6015625 -0.6640625 C74.95225174 -0.00354313 76.29311871 0.67733283 77.625 1.375 C78.33213135 1.73859619 79.0392627 2.10219238 79.76782227 2.47680664 C86.19463247 5.89709271 91.65871335 10.05120406 97 15 C97.76570312 15.68578125 98.53140625 16.3715625 99.3203125 17.078125 C116.7943526 33.51711743 128.01760566 56.95269498 129 81 C129.03996094 81.67417969 129.07992187 82.34835938 129.12109375 83.04296875 C129.90026496 107.47227796 121.24999731 131.80409965 105 150 C99.22866583 156.58684878 97.85181014 160.36191637 97.82400513 169.12559509 C97.81710029 170.07115928 97.81019546 171.01672346 97.80308139 171.99094111 C97.78095989 175.17355485 97.76578602 178.35616504 97.75048828 181.53881836 C97.73596276 183.81533093 97.72096742 186.09184055 97.70553589 188.36834717 C97.67299487 193.27923847 97.64328132 198.19013614 97.61557388 203.10105705 C97.57119325 210.87158756 97.51737995 218.64203456 97.4616394 226.41249084 C97.44270179 229.07238274 97.42378125 231.73227475 97.40490532 234.39216709 C97.39782478 235.38937318 97.39782478 235.38937318 97.3906012 236.40672485 C97.33699245 243.97629796 97.28546901 251.54588478 97.23486328 259.11547852 C97.23023448 259.80744753 97.22560569 260.49941654 97.22083662 261.21235431 C97.14620568 272.40728275 97.07900654 283.60224683 97.01371206 294.79723304 C96.94634452 306.300998 96.86756256 317.80464341 96.77966106 329.30827051 C96.73081096 335.7629251 96.68743 342.21751516 96.65701675 348.67228508 C96.62837686 354.75034137 96.58619794 360.82815488 96.53383255 366.90605164 C96.51707711 369.13114781 96.50527105 371.3562879 96.498909 373.58143806 C96.43111369 395.45095884 92.8170202 413.47323683 76.85546875 429.41015625 C61.20869668 443.60141464 43.87909722 446.85904637 23.51660156 446.13916016 C7.2357264 445.23887893 -7.28596894 435.81290604 -18 424 C-27.37682591 411.79113091 -32.3237868 398.59288466 -32.26501465 383.27108765 C-32.26939592 382.33320329 -32.27377719 381.39531894 -32.27829123 380.42901385 C-32.29054327 377.30858343 -32.28880777 374.18832267 -32.28710938 371.06787109 C-32.29313778 368.82176974 -32.30006309 366.57567065 -32.30781555 364.32957458 C-32.32267369 359.50388301 -32.33144597 354.67823259 -32.33552551 349.85251999 C-32.34225125 342.2215132 -32.36401881 334.59059441 -32.38806152 326.95962524 C-32.42037365 316.26182785 -32.44723651 305.56403524 -32.46826172 294.86621094 C-32.46959671 294.18828584 -32.4709317 293.51036075 -32.47230715 292.81189246 C-32.48308488 287.3107498 -32.49350619 281.80960648 -32.5039072 276.3084631 C-32.51301893 271.49665736 -32.5222712 266.68485192 -32.53173828 261.87304688 C-32.53306902 261.19534722 -32.53439977 260.51764757 -32.53577083 259.81941156 C-32.55821255 248.51329665 -32.58849137 237.20721511 -32.62413073 225.90113318 C-32.64747403 218.31541522 -32.66121883 210.72975874 -32.66762543 203.1440084 C-32.67356272 198.42699507 -32.68765759 193.71003167 -32.70396996 188.9930439 C-32.7098466 186.80613033 -32.71231804 184.61920455 -32.71113014 182.4322834 C-32.70997061 179.44639776 -32.72099059 176.46079258 -32.73498535 173.47494507 C-32.73168638 172.61044688 -32.7283874 171.74594868 -32.72498846 170.85525358 C-32.78216329 163.46002718 -33.58358448 157.8391116 -39.0625 152.4375 C-58.44566191 131.80983331 -65.0748851 106.33118646 -64.3828125 78.64453125 C-64.02356376 70.60662321 -62.75289071 63.57472413 -60 56 C-59.34644531 54.19402344 -59.34644531 54.19402344 -58.6796875 52.3515625 C-49.61154212 29.50776457 -32.07992083 10.47538722 -10.1875 -0.5625 C-6.23393956 -2.22342126 -3.83953756 -2.2077341 0 0 Z M12.4453125 368.90234375 C8.32022105 374.88930081 8.28391858 380.94935212 9 388 C10.77342433 394.64472914 15.4466647 399.17367959 21 403 C26.806675 405.85542764 32.67025003 405.80961918 39 405 C46.11352392 402.53164607 50.46311872 398.17155312 53.9375 391.578125 C56.61825413 385.07335395 56.55376656 379.67683932 54 373.1328125 C51.13661767 367.02575488 47.77204792 362.96426706 41.66015625 359.8828125 C29.6057593 355.88238121 20.26184438 359.75881925 12.4453125 368.90234375 Z " fill="#000000" transform="translate(352,34)"/>
<path d="M0 0 C2.46577227 0.00934463 4.93155393 0.01645292 7.39733887 0.0214386 C13.83524963 0.04037826 20.27258148 0.08936536 26.71026611 0.1449585 C33.30025404 0.19643402 39.89033702 0.21901272 46.48046875 0.24414062 C59.37264044 0.2974978 72.26441419 0.38166658 85.15625 0.48828125 C85.08556368 1.16775786 85.01487736 1.84723448 84.94204903 2.54730129 C84.85040411 3.44244977 84.75875919 4.33759825 84.66433716 5.25987244 C84.57302584 6.14559905 84.48171452 7.03132566 84.38763618 7.94389248 C84.09763229 11.13285834 84.0267046 14.29065995 84.0234375 17.4921875 C84.02150391 19.34553711 84.02150391 19.34553711 84.01953125 21.23632812 C84.02339844 22.49509766 84.02726563 23.75386719 84.03125 25.05078125 C84.02738281 26.31341797 84.02351562 27.57605469 84.01953125 28.87695312 C84.02082031 30.11123047 84.02210938 31.34550781 84.0234375 32.6171875 C84.02512939 34.2734314 84.02512939 34.2734314 84.02685547 35.96313477 C84.12930054 38.75408637 84.34602104 41.43922896 84.66433716 44.20860291 C84.80180453 45.41385825 84.80180453 45.41385825 84.94204903 46.64346218 C85.01273535 47.25225247 85.08342167 47.86104277 85.15625 48.48828125 C83.33247078 48.49708061 83.33247078 48.49708061 81.47184753 48.50605774 C69.98183659 48.5634115 58.4920126 48.636239 47.0021925 48.72399616 C41.09595812 48.76861556 35.18979139 48.80789026 29.28344727 48.8347168 C23.57746293 48.86083384 17.87174008 48.90129558 12.16591835 48.95146751 C9.99520446 48.96807951 7.8244454 48.97962891 5.65367699 48.98589516 C-10.07309704 48.30314695 -10.07309704 48.30314695 -24.84375 52.48828125 C-26.05781818 54.33064541 -26.05781818 54.33064541 -26.84375 56.48828125 C-27.14782776 57.14210785 -27.45190552 57.79593445 -27.76519775 58.46957397 C-28.08019226 59.16459015 -28.39518677 59.85960632 -28.71972656 60.57568359 C-29.08060364 61.37106537 -29.44148071 62.16644714 -29.81329346 62.9859314 C-30.19975037 63.84006622 -30.58620728 64.69420105 -30.984375 65.57421875 C-31.38903992 66.46758942 -31.79370483 67.36096008 -32.21063232 68.28140259 C-33.06840404 70.17585975 -33.92575431 72.07050779 -34.78271484 73.96533203 C-36.07360685 76.81875627 -37.36680003 79.67112953 -38.66015625 82.5234375 C-39.49753803 84.37363357 -40.3347817 86.22389215 -41.171875 88.07421875 C-41.55023499 88.90811127 -41.92859497 89.74200378 -42.31842041 90.60116577 C-45.59603195 97.8578504 -48.70504729 105.16464159 -51.84375 112.48828125 C3.26625 112.48828125 58.37625 112.48828125 115.15625 112.48828125 C115.15625 133.60828125 115.15625 154.72828125 115.15625 176.48828125 C106.54208984 176.54435547 106.54208984 176.54435547 97.75390625 176.6015625 C94.10348631 176.63185866 90.45311416 176.66301728 86.80273438 176.69726562 C81.01589438 176.7514769 75.22914891 176.80259126 69.44213867 176.8347168 C64.77354893 176.86083416 60.10527875 176.90129568 55.43688774 176.95146751 C53.66086253 176.96807938 51.88478211 176.97962888 50.10869026 176.98589516 C37.30659767 176.88390983 37.30659767 176.88390983 25.15625 180.48828125 C20.56476111 185.19455736 19.80125819 188.55742849 19.875 194.9453125 C20.28806244 198.68008543 21.66499332 200.72769953 24.15625 203.48828125 C29.72526023 207.62934014 35.43243578 207.64124325 42.15942383 207.69360352 C42.95019318 207.70350311 43.74096252 207.71340271 44.55569458 207.72360229 C47.15819346 207.75508051 49.76071057 207.77992039 52.36328125 207.8046875 C54.1721798 207.82526885 55.98107366 207.84626563 57.78996277 207.86766052 C62.54263509 207.92275922 67.29534993 207.97222215 72.0480957 208.02050781 C77.75505965 208.07966217 83.46194617 208.1458228 89.16884613 208.2108078 C97.83126665 208.30866373 106.49373766 208.39762481 115.15625 208.48828125 C115.15625 229.60828125 115.15625 250.72828125 115.15625 272.48828125 C77.86625 272.48828125 40.57625 272.48828125 2.15625 272.48828125 C2.15625 290.96828125 2.15625 309.44828125 2.15625 328.48828125 C-2.11720557 339.17192017 -5.66871247 345.49428305 -15.84375 350.48828125 C-20.12132888 352.12765787 -23.68412076 352.74701387 -28.25708008 352.77880859 C-29.50890579 352.7915683 -30.76073151 352.804328 -32.05049133 352.81747437 C-33.40475305 352.82053266 -34.75901686 352.82276008 -36.11328125 352.82421875 C-37.51804232 352.83065508 -38.92280208 352.83738405 -40.32756042 352.84439087 C-43.26698918 352.85633576 -46.20630066 352.86007464 -49.14575195 352.85888672 C-52.89139805 352.85868381 -56.63628307 352.88596858 -60.38174915 352.92043114 C-63.28247961 352.94279482 -66.18302972 352.94672137 -69.08383751 352.94566727 C-70.46359565 352.94800968 -71.8433598 352.95675564 -73.223032 352.972332 C-81.32927059 353.05527758 -87.77305566 352.65577701 -94.84375 348.48828125 C-95.65328125 348.0190625 -96.4628125 347.54984375 -97.296875 347.06640625 C-103.99059805 342.11887182 -107.5317487 336.46312094 -109.84375 328.48828125 C-110.06166077 325.38417053 -110.06166077 325.38417053 -110.01977539 322.04321289 C-110.01059586 320.78493179 -110.00141632 319.5266507 -109.99195862 318.23023987 C-109.98316744 317.56531588 -109.97437626 316.90039188 -109.96531868 316.21531868 C-109.93267859 313.39405847 -109.93535005 310.57315578 -109.93560696 307.75173855 C-109.93546376 302.51086422 -109.92026451 297.27092981 -109.84741211 292.03051758 C-109.79791341 288.37251142 -109.79250883 284.71667792 -109.81554985 281.05843925 C-109.81611618 279.67138254 -109.80056814 278.28421624 -109.76811409 276.89753914 C-109.42600663 268.95397764 -109.42600663 268.95397764 -112.8183136 262.11106873 C-115.08437698 260.3322089 -117.33033593 258.88747921 -119.84375 257.48828125 C-131.75704604 248.51571467 -139.50605059 234.11042462 -141.84375 219.48828125 C-142.1278511 215.38510086 -142.14793752 211.2955501 -142.14453125 207.18359375 C-142.14881638 206.02383026 -142.1531015 204.86406677 -142.15751648 203.66915894 C-142.1632346 201.22687429 -142.16377872 198.78457262 -142.15942383 196.34228516 C-142.15626554 192.63153665 -142.17975029 188.9215876 -142.20507812 185.2109375 C-142.20735172 182.82682391 -142.20805433 180.4427082 -142.20703125 178.05859375 C-142.216241 176.9624173 -142.22545074 175.86624084 -142.23493958 174.73684692 C-142.13337045 157.59490123 -134.97019171 141.61472296 -122.84375 129.48828125 C-120.07858606 127.26339358 -117.27465847 125.2134048 -114.32421875 123.2421875 C-110.09348317 120.250691 -107.51320264 117.38367075 -105.46875 112.61328125 C-105.0469043 111.64193741 -104.62505859 110.67059357 -104.19042969 109.66981506 C-103.74602539 108.61990891 -103.30162109 107.57000275 -102.84375 106.48828125 C-102.37098633 105.39225082 -101.89822266 104.2962204 -101.41113281 103.16697693 C-99.87984158 99.61113355 -98.36191971 96.04974387 -96.84375 92.48828125 C-95.79781881 90.05566494 -94.75094301 87.62345457 -93.703125 85.19165039 C-89.40288319 75.19971194 -85.13353765 65.19489171 -80.90625 55.171875 C-80.36594289 53.89515797 -79.8255816 52.61846386 -79.28515625 51.34179688 C-78.36799529 49.16819997 -77.45829325 46.99142939 -76.55859375 44.81054688 C-68.64719657 25.99871982 -57.60362981 12.41117721 -38.58703613 4.05769348 C-25.84454043 -0.47968413 -13.3955624 -0.15040821 0 0 Z M-86.3046875 169.3359375 C-93.02786467 178.7381472 -93.82866161 189.29110181 -92.84375 200.48828125 C-90.6475287 211.25770376 -84.0671748 219.62250787 -75.26953125 225.98046875 C-65.31210572 232.16978639 -54.01322381 233.27034784 -42.65625 230.79296875 C-32.56841961 227.45838037 -23.6722593 220.53041806 -18.5546875 211.1171875 C-13.93833519 201.00438694 -12.86641147 189.14582221 -16.46875 178.48828125 C-21.04561298 167.79826561 -29.01709823 159.66117677 -39.765625 155.21484375 C-57.40612471 149.04730062 -74.62596296 155.44412132 -86.3046875 169.3359375 Z " fill="#000000" transform="translate(173.84375,95.51171875)"/>
</svg>
